<?xml version="1.0" standalone="no"?>
<!DOCTYPE svg PUBLIC "-//W3C//DTD SVG 1.1//EN" "http://www.w3.org/Graphics/SVG/1.1/DTD/svg11.dtd">
<svg width="500px" height="300px" version="1.1" xmlns="http://www.w3.org/2000/svg">
  <desc>Triturus profile export</desc>
  <rect width="500" height="300" style="fill:rgb(255,255,255)"/>
  <rect x="10" y="10" width="480.0" height="30" style="fill:rgb(200,200,200)" rx="0" ry="0"/>
  <g style="font-family:sans-serif;font-size:14;fill:rgb(0,0,40)">
    <text x="16" y="30">Triturus cross-section profile</text>
  </g>
  <rect x="10" y="40.0" width="30" height="200.0" style="fill:rgb(227,227,227)" rx="0" ry="0"/>
  <rect x="40.0" y="240.0" width="450.0" height="30" style="fill:rgb(227,227,227)" rx="0" ry="0"/>
  <rect x="10" y="240.0" width="30" height="30" style="fill:rgb(227,227,227)" rx="0" ry="0"/>
  <rect x="10" y="270.0" width="480.0" height="20" style="fill:rgb(200,200,200)" rx="0" ry="0"/>
  <g style="font-family:sans-serif;font-size:10;fill:rgb(0,0,40)">
    <text x="16" y="284.0">Generated by 52N Triturus</text>
  </g>
  <line x1="40.0" y1="40.0" x2="40.0" y2="240.0" style="stroke:rgb(0,255,0);fill:none"/>
  <line x1="115.0" y1="40.0" x2="115.0" y2="240.0" style="stroke:rgb(0,255,0);fill:none"/>
  <line x1="190.0" y1="40.0" x2="190.0" y2="240.0" style="stroke:rgb(0,255,0);fill:none"/>
  <line x1="490.0" y1="40.0" x2="490.0" y2="240.0" style="stroke:rgb(0,255,0);fill:none"/>
  <line x1="40.0" y1="240.0" x2="490.0" y2="240.0" style="stroke:rgb(0,255,0);fill:none"/>
  <line x1="40.0" y1="206.66666" x2="490.0" y2="206.66666" style="stroke:rgb(0,255,0);fill:none"/>
  <line x1="40.0" y1="173.33333" x2="490.0" y2="173.33333" style="stroke:rgb(0,255,0);fill:none"/>
  <line x1="40.0" y1="140.0" x2="490.0" y2="140.0" style="stroke:rgb(0,255,0);fill:none"/>
  <line x1="40.0" y1="106.66666" x2="490.0" y2="106.66666" style="stroke:rgb(0,255,0);fill:none"/>
  <line x1="40.0" y1="73.33334" x2="490.0" y2="73.33334" style="stroke:rgb(0,255,0);fill:none"/>
  <line x1="40.0" y1="40.0" x2="490.0" y2="40.0" style="stroke:rgb(0,255,0);fill:none"/>
  <g style="font-family:sans-serif;font-size:10;fill:rgb(0,0,40)">
    <text writing-mode="tb-rl" x="45.0" y="243.0">0 m</text>
  </g>
  <g style="font-family:sans-serif;font-size:10;fill:rgb(0,0,40)">
    <text writing-mode="tb-rl" x="110.0" y="243.0">115</text>
  </g>
  <g style="font-family:sans-serif;font-size:10;fill:rgb(0,0,40)">
    <text writing-mode="tb-rl" x="185.0" y="243.0">190</text>
  </g>
  <g style="font-family:sans-serif;font-size:10;fill:rgb(0,0,40)">
    <text writing-mode="tb-rl" x="485.0" y="243.0">490</text>
  </g>
  <g style="font-family:sans-serif;font-size:10;fill:rgb(0,0,40)">
    <text text-anchor="end" x="36" y="248.0">120</text>
  </g>
  <g style="font-family:sans-serif;font-size:10;fill:rgb(0,0,40)">
    <text text-anchor="end" x="36" y="214.66666">125</text>
  </g>
  <g style="font-family:sans-serif;font-size:10;fill:rgb(0,0,40)">
    <text text-anchor="end" x="36" y="181.33333">130</text>
  </g>
  <g style="font-family:sans-serif;font-size:10;fill:rgb(0,0,40)">
    <text text-anchor="end" x="36" y="148.0">135</text>
  </g>
  <g style="font-family:sans-serif;font-size:10;fill:rgb(0,0,40)">
    <text text-anchor="end" x="36" y="114.66666">140</text>
  </g>
  <g style="font-family:sans-serif;font-size:10;fill:rgb(0,0,40)">
    <text text-anchor="end" x="36" y="81.33334">145</text>
  </g>
  <g style="font-family:sans-serif;font-size:10;fill:rgb(0,0,40)">
    <text text-anchor="end" x="36" y="48.0">150</text>
  </g>
  <path d="
M40.00 204.00 L47.50 208.67 L55.00 194.67 L62.50 178.00 L70.00 162.67 L77.50 150.67 L85.00 121.33 L92.50 106.00 L100.00 109.33 L107.50 110.67 L115.00 116.67 L122.50 143.33 L130.00 163.33 L137.50 172.00 L145.00 178.67 L152.50 182.67 L160.00 187.33 L167.50 198.67 L175.00 211.33 L182.50 212.67 L190.00 215.33 L197.50 211.33 L205.00 206.00 L212.50 201.33 L220.00 204.00 L227.50 205.33 L235.00 191.33 L242.50 176.67 L250.00 176.00 L257.50 171.33 L265.00 162.67 L272.50 157.33 L280.00 151.33 L287.50 136.67 L295.00 137.33 L302.50 146.00 L310.00 149.33 L317.50 162.67 L325.00 178.00 L332.50 182.00 L340.00 188.00 L347.50 193.33 L355.00 199.33 L362.50 200.00 L370.00 190.00 L377.50 180.00 L385.00 184.67 L392.50 196.00 L400.00 199.33 L407.50 195.33 L415.00 182.00 L422.50 158.67 L430.00 136.67 L437.50 124.67 L445.00 120.00 L452.50 121.33 L460.00 125.33 L467.50 120.00 L475.00 108.67 L482.50 86.67 L490.00 69.00" style="stroke:rgb(255,0,0);fill:none"/>
</svg>
